<svg id="Layer_10" data-name="Layer 10" xmlns="http://www.w3.org/2000/svg" xmlns:xlink="http://www.w3.org/1999/xlink" viewBox="0 0 768 415"><defs><style>.cls-1,.cls-100,.cls-101,.cls-102,.cls-103,.cls-104,.cls-105,.cls-106,.cls-107,.cls-108,.cls-109,.cls-11,.cls-110,.cls-111,.cls-112,.cls-113,.cls-114,.cls-115,.cls-116,.cls-117,.cls-118,.cls-119,.cls-12,.cls-120,.cls-121,.cls-122,.cls-123,.cls-124,.cls-125,.cls-126,.cls-127,.cls-128,.cls-129,.cls-13,.cls-130,.cls-131,.cls-134,.cls-135,.cls-138,.cls-139,.cls-14,.cls-141,.cls-142,.cls-2,.cls-21,.cls-22,.cls-23,.cls-24,.cls-25,.cls-26,.cls-27,.cls-28,.cls-29,.cls-30,.cls-31,.cls-32,.cls-33,.cls-34,.cls-35,.cls-36,.cls-37,.cls-38,.cls-39,.cls-40,.cls-41,.cls-42,.cls-43,.cls-44,.cls-45,.cls-46,.cls-47,.cls-48,.cls-49,.cls-50,.cls-51,.cls-52,.cls-53,.cls-54,.cls-55,.cls-56,.cls-57,.cls-58,.cls-59,.cls-60,.cls-61,.cls-62,.cls-63,.cls-64,.cls-65,.cls-66,.cls-67,.cls-68,.cls-69,.cls-7,.cls-70,.cls-71,.cls-72,.cls-73,.cls-74,.cls-75,.cls-76,.cls-77,.cls-78,.cls-79,.cls-8,.cls-80,.cls-81,.cls-82,.cls-83,.cls-84,.cls-85,.cls-86,.cls-87,.cls-88,.cls-89,.cls-90,.cls-91,.cls-92,.cls-93,.cls-94,.cls-95,.cls-96,.cls-97,.cls-98,.cls-99{fill:none;}.cls-2{stroke:#8c8c8c;}.cls-100,.cls-101,.cls-102,.cls-103,.cls-104,.cls-105,.cls-106,.cls-107,.cls-108,.cls-109,.cls-110,.cls-111,.cls-112,.cls-113,.cls-114,.cls-115,.cls-116,.cls-117,.cls-118,.cls-119,.cls-12,.cls-120,.cls-121,.cls-122,.cls-123,.cls-124,.cls-125,.cls-126,.cls-127,.cls-128,.cls-129,.cls-13,.cls-130,.cls-131,.cls-135,.cls-138,.cls-139,.cls-14,.cls-141,.cls-142,.cls-15,.cls-2,.cls-21,.cls-22,.cls-23,.cls-24,.cls-25,.cls-27,.cls-28,.cls-29,.cls-30,.cls-31,.cls-32,.cls-33,.cls-34,.cls-35,.cls-36,.cls-37,.cls-38,.cls-39,.cls-4,.cls-40,.cls-41,.cls-42,.cls-43,.cls-44,.cls-45,.cls-46,.cls-47,.cls-48,.cls-49,.cls-50,.cls-51,.cls-52,.cls-53,.cls-54,.cls-55,.cls-56,.cls-57,.cls-58,.cls-59,.cls-60,.cls-61,.cls-62,.cls-63,.cls-64,.cls-65,.cls-66,.cls-67,.cls-68,.cls-69,.cls-7,.cls-70,.cls-71,.cls-72,.cls-73,.cls-74,.cls-75,.cls-76,.cls-77,.cls-78,.cls-79,.cls-8,.cls-80,.cls-81,.cls-82,.cls-83,.cls-84,.cls-85,.cls-86,.cls-87,.cls-88,.cls-89,.cls-90,.cls-91,.cls-92,.cls-93,.cls-94,.cls-95,.cls-96,.cls-97,.cls-98,.cls-99{stroke-miterlimit:10;}.cls-3{fill:#8c8c8c;}.cls-18,.cls-4{fill:#b3b3b3;}.cls-14,.cls-4{stroke:#b3b3b3;stroke-width:1.2px;}.cls-5{fill:#0b3051;}.cls-6{fill:url(#linear-gradient);}.cls-100,.cls-101,.cls-102,.cls-103,.cls-104,.cls-105,.cls-106,.cls-107,.cls-108,.cls-109,.cls-110,.cls-111,.cls-112,.cls-113,.cls-114,.cls-115,.cls-116,.cls-117,.cls-118,.cls-119,.cls-12,.cls-120,.cls-121,.cls-122,.cls-123,.cls-124,.cls-125,.cls-126,.cls-127,.cls-128,.cls-129,.cls-13,.cls-130,.cls-131,.cls-134,.cls-138,.cls-139,.cls-141,.cls-15,.cls-21,.cls-22,.cls-23,.cls-24,.cls-25,.cls-26,.cls-27,.cls-28,.cls-29,.cls-30,.cls-31,.cls-32,.cls-33,.cls-34,.cls-35,.cls-36,.cls-37,.cls-38,.cls-39,.cls-40,.cls-41,.cls-42,.cls-43,.cls-44,.cls-45,.cls-46,.cls-47,.cls-48,.cls-49,.cls-50,.cls-51,.cls-52,.cls-53,.cls-54,.cls-55,.cls-56,.cls-57,.cls-58,.cls-59,.cls-60,.cls-61,.cls-62,.cls-63,.cls-64,.cls-65,.cls-66,.cls-67,.cls-68,.cls-69,.cls-7,.cls-70,.cls-71,.cls-72,.cls-73,.cls-74,.cls-75,.cls-76,.cls-77,.cls-78,.cls-79,.cls-8,.cls-80,.cls-81,.cls-82,.cls-83,.cls-84,.cls-85,.cls-86,.cls-87,.cls-88,.cls-89,.cls-90,.cls-91,.cls-92,.cls-93,.cls-94,.cls-95,.cls-96,.cls-97,.cls-98,.cls-99{stroke:#fff;}.cls-8{stroke-dasharray:3.98 1.99;}.cls-15,.cls-9{fill:#5aaef9;}.cls-10{fill:#b4d9f5;}.cls-11,.cls-142{stroke:#0b3051;}.cls-12{stroke-dasharray:4.02 2.01;}.cls-13{stroke-dasharray:4 2;}.cls-16{fill:#fff;}.cls-17{opacity:0.4;}.cls-19{fill:url(#linear-gradient-2);}.cls-20{clip-path:url(#clip-path);}.cls-21{opacity:0.99;}.cls-22{opacity:0.98;}.cls-23{opacity:0.97;}.cls-24{opacity:0.96;}.cls-25{opacity:0.95;}.cls-26{stroke-miterlimit:10;opacity:0.95;}.cls-27{opacity:0.94;}.cls-28{opacity:0.93;}.cls-29{opacity:0.92;}.cls-30{opacity:0.91;}.cls-31{opacity:0.9;}.cls-32{opacity:0.89;}.cls-33{opacity:0.88;}.cls-34{opacity:0.87;}.cls-35{opacity:0.86;}.cls-36{opacity:0.86;}.cls-37{opacity:0.85;}.cls-38{opacity:0.84;}.cls-39{opacity:0.83;}.cls-40{opacity:0.82;}.cls-41{opacity:0.81;}.cls-42{opacity:0.8;}.cls-43{opacity:0.79;}.cls-44{opacity:0.78;}.cls-45{opacity:0.77;}.cls-46{opacity:0.77;}.cls-47{opacity:0.76;}.cls-48{opacity:0.75;}.cls-49{opacity:0.74;}.cls-50{opacity:0.73;}.cls-51{opacity:0.72;}.cls-52{opacity:0.71;}.cls-53{opacity:0.7;}.cls-54{opacity:0.69;}.cls-55{opacity:0.68;}.cls-56{opacity:0.68;}.cls-57{opacity:0.67;}.cls-58{opacity:0.66;}.cls-59{opacity:0.65;}.cls-60{opacity:0.64;}.cls-61{opacity:0.63;}.cls-62{opacity:0.62;}.cls-63{opacity:0.61;}.cls-64{opacity:0.6;}.cls-65{opacity:0.59;}.cls-66{opacity:0.59;}.cls-67{opacity:0.58;}.cls-68{opacity:0.57;}.cls-69{opacity:0.56;}.cls-70{opacity:0.55;}.cls-71{opacity:0.54;}.cls-72{opacity:0.53;}.cls-73{opacity:0.52;}.cls-74{opacity:0.51;}.cls-75{opacity:0.5;}.cls-76{opacity:0.5;}.cls-77{opacity:0.49;}.cls-78{opacity:0.48;}.cls-79{opacity:0.47;}.cls-80{opacity:0.46;}.cls-81{opacity:0.45;}.cls-82{opacity:0.44;}.cls-83{opacity:0.43;}.cls-84{opacity:0.42;}.cls-85{opacity:0.41;}.cls-86{opacity:0.41;}.cls-87{opacity:0.4;}.cls-88{opacity:0.39;}.cls-89{opacity:0.38;}.cls-90{opacity:0.37;}.cls-91{opacity:0.36;}.cls-92{opacity:0.35;}.cls-93{opacity:0.34;}.cls-94{opacity:0.33;}.cls-95{opacity:0.32;}.cls-96{opacity:0.32;}.cls-97{opacity:0.31;}.cls-98{opacity:0.3;}.cls-99{opacity:0.29;}.cls-100{opacity:0.28;}.cls-101{opacity:0.27;}.cls-102{opacity:0.26;}.cls-103{opacity:0.25;}.cls-104{opacity:0.24;}.cls-105{opacity:0.23;}.cls-106{opacity:0.23;}.cls-107{opacity:0.22;}.cls-108{opacity:0.21;}.cls-109{opacity:0.2;}.cls-110{opacity:0.19;}.cls-111{opacity:0.18;}.cls-112{opacity:0.17;}.cls-113{opacity:0.16;}.cls-114{opacity:0.15;}.cls-115{opacity:0.14;}.cls-116{opacity:0.14;}.cls-117{opacity:0.13;}.cls-118{opacity:0.12;}.cls-119{opacity:0.11;}.cls-120{opacity:0.1;}.cls-121{opacity:0.09;}.cls-122{opacity:0.08;}.cls-123{opacity:0.07;}.cls-124{opacity:0.06;}.cls-125{opacity:0.05;}.cls-126{opacity:0.05;}.cls-127{opacity:0.04;}.cls-128{opacity:0.03;}.cls-129{opacity:0.02;}.cls-130{opacity:0.01;}.cls-131{opacity:0;}.cls-132{clip-path:url(#clip-path-2);}.cls-133{fill:#e1e1e1;}.cls-135{stroke:#67b2ec;}.cls-136{fill:url(#linear-gradient-3);}.cls-137{clip-path:url(#clip-path-3);}.cls-138{stroke-dasharray:3.97 1.99;}.cls-139{stroke-linecap:round;stroke-width:2px;}.cls-140{fill:#67b2ec;}.cls-141{stroke-dasharray:4.02 2.01;}</style><linearGradient id="linear-gradient" x1="408.5" y1="406.39" x2="408.5" y2="-63.44" gradientTransform="translate(617 -200) rotate(90)" gradientUnits="userSpaceOnUse"><stop offset="0" stop-color="#0982fe"/><stop offset="1" stop-color="#3ca1d2"/></linearGradient><linearGradient id="linear-gradient-2" x1="86" y1="340.8" x2="86" y2="106.36" gradientTransform="matrix(1, 0, 0, 1, 0, 0)" xlink:href="#linear-gradient"/><clipPath id="clip-path"><rect class="cls-1" x="11" y="74" width="149" height="21"/></clipPath><clipPath id="clip-path-2"><rect class="cls-1" x="11.5" y="381.5" width="149" height="24"/></clipPath><linearGradient id="linear-gradient-3" x1="595" y1="388.67" x2="595" y2="244.66" gradientTransform="matrix(1, 0, 0, 1, 0, 0)" xlink:href="#linear-gradient"/><clipPath id="clip-path-3"><polygon class="cls-1" points="741.5 255.5 741.5 393.5 450.5 393.5 450.5 255.5 431.5 255.5 431.5 404.88 758.5 404.88 758.5 255.5 741.5 255.5"/></clipPath></defs><title>iOSHIG_Hero</title><line class="cls-2" y1="414.5" x2="768" y2="414.5"/><path class="cls-3" d="M137,204.58a3.72,3.72,0,1,1-3.73,3.72A3.71,3.71,0,0,1,137,204.58Z"/><rect class="cls-4" x="203" y="-86.5" width="411" height="591" rx="20.56" ry="20.56" transform="translate(199.5 617.5) rotate(-90)"/><rect class="cls-5" x="117.19" y="7.14" width="582.58" height="403.72" rx="19.15" ry="19.15"/><rect class="cls-6" x="219" y="-43" width="379" height="503" transform="translate(200 617) rotate(-90)"/><line class="cls-7" x1="158" y1="50.5" x2="160" y2="50.5"/><line class="cls-8" x1="161.99" y1="50.5" x2="657" y2="50.5"/><line class="cls-7" x1="658" y1="50.5" x2="660" y2="50.5"/><rect class="cls-9" x="183" y="250" width="32" height="7"/><rect class="cls-9" x="183.5" y="167.5" width="78" height="78" rx="2.5" ry="2.5"/><path class="cls-10" d="M259,168a2,2,0,0,1,2,2v73a2,2,0,0,1-2,2H186a2,2,0,0,1-2-2V170a2,2,0,0,1,2-2h73m0-1H186a3,3,0,0,0-3,3v73a3,3,0,0,0,3,3h73a3,3,0,0,0,3-3V170a3,3,0,0,0-3-3Z"/><line class="cls-7" x1="158" y1="167.5" x2="160" y2="167.5"/><line class="cls-8" x1="161.99" y1="167.5" x2="657" y2="167.5"/><line class="cls-7" x1="658" y1="167.5" x2="660" y2="167.5"/><rect class="cls-9" x="183" y="144" width="32" height="7"/><rect class="cls-9" x="183.5" y="61.5" width="78" height="78" rx="2.5" ry="2.5"/><path class="cls-10" d="M259,62a2,2,0,0,1,2,2v73a2,2,0,0,1-2,2H186a2,2,0,0,1-2-2V64a2,2,0,0,1,2-2h73m0-1H186a3,3,0,0,0-3,3v73a3,3,0,0,0,3,3h73a3,3,0,0,0,3-3V64a3,3,0,0,0-3-3Z"/><line class="cls-11" x1="169.5" y1="96" x2="169.5" y2="103"/><line class="cls-11" x1="182.5" y1="96" x2="182.5" y2="103"/><line class="cls-11" x1="169" y1="99.5" x2="183" y2="99.5"/><rect class="cls-9" x="276" y="144" width="32" height="7"/><rect class="cls-9" x="276.5" y="61.5" width="78" height="78" rx="2.5" ry="2.5"/><path class="cls-10" d="M352,62a2,2,0,0,1,2,2v73a2,2,0,0,1-2,2H279a2,2,0,0,1-2-2V64a2,2,0,0,1,2-2h73m0-1H279a3,3,0,0,0-3,3v73a3,3,0,0,0,3,3h73a3,3,0,0,0,3-3V64a3,3,0,0,0-3-3Z"/><rect class="cls-9" x="183" y="389" width="32" height="7"/><path class="cls-9" d="M183.5,384.5V309a2.5,2.5,0,0,1,2.5-2.5h73a2.5,2.5,0,0,1,2.5,2.5v75.5Z"/><path class="cls-10" d="M259,307a2,2,0,0,1,2,2v75H184V309a2,2,0,0,1,2-2h73m0-1H186a3,3,0,0,0-3,3v76h79V309a3,3,0,0,0-3-3Z"/><rect class="cls-9" x="276" y="389" width="32" height="7"/><path class="cls-9" d="M276.5,384.5V309a2.5,2.5,0,0,1,2.5-2.5h73a2.5,2.5,0,0,1,2.5,2.5v75.5Z"/><path class="cls-10" d="M352,307a2,2,0,0,1,2,2v75H277V309a2,2,0,0,1,2-2h73m0-1H279a3,3,0,0,0-3,3v76h79V309a3,3,0,0,0-3-3Z"/><rect class="cls-10" x="157" y="373" width="503" height="25"/><line class="cls-7" x1="162" y1="372.5" x2="164" y2="372.5"/><line class="cls-12" x1="166.01" y1="372.5" x2="659" y2="372.5"/><line class="cls-7" x1="660" y1="372.5" x2="662" y2="372.5"/><rect class="cls-10" x="157" y="19" width="503" height="31"/><line class="cls-13" x1="162.5" y1="19" x2="162.5" y2="336"/><path class="cls-14" d="M680,195a12.5,12.5,0,1,0,12.52,12.51A12.5,12.5,0,0,0,680,195"/><line class="cls-13" x1="655.5" y1="19" x2="655.5" y2="336"/><rect class="cls-15" x="714.5" y="319.5" width="20" height="12" rx="6" ry="6"/><circle class="cls-16" cx="728.5" cy="325.5" r="4.5"/><g class="cls-17"><rect class="cls-5" x="656" y="17.5" width="10" height="321.5"/></g><g class="cls-17"><rect class="cls-5" x="152" y="17.5" width="10" height="321.5"/></g><line class="cls-7" x1="157.5" y1="178" x2="157.5" y2="187"/><rect class="cls-7" x="219.5" y="-42.5" width="379" height="503" transform="translate(200 618) rotate(-90)"/><rect class="cls-18" y="115" width="1.43" height="13"/><rect class="cls-18" y="172" width="1" height="25"/><rect class="cls-18" y="140" width="1" height="25"/><rect class="cls-19" x="11" y="79" width="150" height="326"/><rect class="cls-10" x="11.5" y="95.5" width="149.5" height="43.5"/><path class="cls-10" d="M161,95.89H11V80c1-2.78,3.26-5,6-5H161Z"/><g class="cls-20"><line class="cls-7" x1="-248.46" y1="113.89" x2="89.94" y2="-222.62"/><line class="cls-21" x1="-244.68" y1="114.41" x2="93.72" y2="-222.1"/><line class="cls-22" x1="-240.9" y1="114.93" x2="97.5" y2="-221.58"/><line class="cls-23" x1="-237.12" y1="115.46" x2="101.28" y2="-221.05"/><line class="cls-24" x1="-233.34" y1="115.98" x2="105.06" y2="-220.53"/><line class="cls-25" x1="-229.56" y1="116.5" x2="108.84" y2="-220.01"/><line class="cls-26" x1="-225.78" y1="117.02" x2="112.62" y2="-219.49"/><line class="cls-27" x1="-222" y1="117.54" x2="116.4" y2="-218.97"/><line class="cls-28" x1="-218.22" y1="118.06" x2="120.18" y2="-218.45"/><line class="cls-29" x1="-214.44" y1="118.59" x2="123.96" y2="-217.92"/><line class="cls-30" x1="-210.66" y1="119.11" x2="127.74" y2="-217.4"/><line class="cls-31" x1="-206.88" y1="119.63" x2="131.52" y2="-216.88"/><line class="cls-32" x1="-203.1" y1="120.15" x2="135.3" y2="-216.36"/><line class="cls-33" x1="-199.32" y1="120.67" x2="139.08" y2="-215.84"/><line class="cls-34" x1="-195.54" y1="121.19" x2="142.87" y2="-215.32"/><line class="cls-35" x1="-191.76" y1="121.72" x2="146.65" y2="-214.79"/><line class="cls-36" x1="-187.98" y1="122.24" x2="150.43" y2="-214.27"/><line class="cls-37" x1="-184.19" y1="122.76" x2="154.21" y2="-213.75"/><line class="cls-38" x1="-180.41" y1="123.28" x2="157.99" y2="-213.23"/><line class="cls-39" x1="-176.63" y1="123.8" x2="161.77" y2="-212.71"/><line class="cls-40" x1="-172.85" y1="124.32" x2="165.55" y2="-212.18"/><line class="cls-41" x1="-169.07" y1="124.85" x2="169.33" y2="-211.66"/><line class="cls-42" x1="-165.29" y1="125.37" x2="173.11" y2="-211.14"/><line class="cls-43" x1="-161.51" y1="125.89" x2="176.89" y2="-210.62"/><line class="cls-44" x1="-157.73" y1="126.41" x2="180.67" y2="-210.1"/><line class="cls-45" x1="-153.95" y1="126.93" x2="184.45" y2="-209.58"/><line class="cls-46" x1="-150.17" y1="127.46" x2="188.23" y2="-209.05"/><line class="cls-47" x1="-146.39" y1="127.98" x2="192.01" y2="-208.53"/><line class="cls-48" x1="-142.61" y1="128.5" x2="195.79" y2="-208.01"/><line class="cls-49" x1="-138.83" y1="129.02" x2="199.57" y2="-207.49"/><line class="cls-50" x1="-135.05" y1="129.54" x2="203.35" y2="-206.97"/><line class="cls-51" x1="-131.27" y1="130.06" x2="207.13" y2="-206.45"/><line class="cls-52" x1="-127.49" y1="130.59" x2="210.91" y2="-205.92"/><line class="cls-53" x1="-123.71" y1="131.11" x2="214.69" y2="-205.4"/><line class="cls-54" x1="-119.93" y1="131.63" x2="218.47" y2="-204.88"/><line class="cls-55" x1="-116.15" y1="132.15" x2="222.25" y2="-204.36"/><line class="cls-56" x1="-112.37" y1="132.67" x2="226.04" y2="-203.84"/><line class="cls-57" x1="-108.59" y1="133.19" x2="229.82" y2="-203.32"/><line class="cls-58" x1="-104.8" y1="133.72" x2="233.6" y2="-202.79"/><line class="cls-59" x1="-101.02" y1="134.24" x2="237.38" y2="-202.27"/><line class="cls-60" x1="-97.24" y1="134.76" x2="241.16" y2="-201.75"/><line class="cls-61" x1="-93.46" y1="135.28" x2="244.94" y2="-201.23"/><line class="cls-62" x1="-89.68" y1="135.8" x2="248.72" y2="-200.71"/><line class="cls-63" x1="-85.9" y1="136.32" x2="252.5" y2="-200.19"/><line class="cls-64" x1="-82.12" y1="136.85" x2="256.28" y2="-199.66"/><line class="cls-65" x1="-78.34" y1="137.37" x2="260.06" y2="-199.14"/><line class="cls-66" x1="-74.56" y1="137.89" x2="263.84" y2="-198.62"/><line class="cls-67" x1="-70.78" y1="138.41" x2="267.62" y2="-198.1"/><line class="cls-68" x1="-67" y1="138.93" x2="271.4" y2="-197.58"/><line class="cls-69" x1="-63.22" y1="139.46" x2="275.18" y2="-197.05"/><line class="cls-70" x1="-59.44" y1="139.98" x2="278.96" y2="-196.53"/><line class="cls-71" x1="-55.66" y1="140.5" x2="282.74" y2="-196.01"/><line class="cls-72" x1="-51.88" y1="141.02" x2="286.52" y2="-195.49"/><line class="cls-73" x1="-48.1" y1="141.54" x2="290.3" y2="-194.97"/><line class="cls-74" x1="-44.32" y1="142.06" x2="294.08" y2="-194.45"/><line class="cls-75" x1="-40.54" y1="142.59" x2="297.86" y2="-193.92"/><line class="cls-76" x1="-36.76" y1="143.11" x2="301.64" y2="-193.4"/><line class="cls-77" x1="-32.98" y1="143.63" x2="305.42" y2="-192.88"/><line class="cls-78" x1="-29.2" y1="144.15" x2="309.21" y2="-192.36"/><line class="cls-79" x1="-25.42" y1="144.67" x2="312.99" y2="-191.84"/><line class="cls-80" x1="-21.63" y1="145.19" x2="316.77" y2="-191.32"/><line class="cls-81" x1="-17.85" y1="145.72" x2="320.55" y2="-190.79"/><line class="cls-82" x1="-14.07" y1="146.24" x2="324.33" y2="-190.27"/><line class="cls-83" x1="-10.29" y1="146.76" x2="328.11" y2="-189.75"/><line class="cls-84" x1="-6.51" y1="147.28" x2="331.89" y2="-189.23"/><line class="cls-85" x1="-2.73" y1="147.8" x2="335.67" y2="-188.71"/><line class="cls-86" x1="1.05" y1="148.32" x2="339.45" y2="-188.19"/><line class="cls-87" x1="4.83" y1="148.85" x2="343.23" y2="-187.66"/><line class="cls-88" x1="8.61" y1="149.37" x2="347.01" y2="-187.14"/><line class="cls-89" x1="12.39" y1="149.89" x2="350.79" y2="-186.62"/><line class="cls-90" x1="16.17" y1="150.41" x2="354.57" y2="-186.1"/><line class="cls-91" x1="19.95" y1="150.93" x2="358.35" y2="-185.58"/><line class="cls-92" x1="23.73" y1="151.45" x2="362.13" y2="-185.05"/><line class="cls-93" x1="27.51" y1="151.98" x2="365.91" y2="-184.53"/><line class="cls-94" x1="31.29" y1="152.5" x2="369.69" y2="-184.01"/><line class="cls-95" x1="35.07" y1="153.02" x2="373.47" y2="-183.49"/><line class="cls-96" x1="38.85" y1="153.54" x2="377.25" y2="-182.97"/><line class="cls-97" x1="42.63" y1="154.06" x2="381.03" y2="-182.45"/><line class="cls-98" x1="46.41" y1="154.59" x2="384.81" y2="-181.92"/><line class="cls-99" x1="50.19" y1="155.11" x2="388.6" y2="-181.4"/><line class="cls-100" x1="53.97" y1="155.63" x2="392.38" y2="-180.88"/><line class="cls-101" x1="57.75" y1="156.15" x2="396.16" y2="-180.36"/><line class="cls-102" x1="61.54" y1="156.67" x2="399.94" y2="-179.84"/><line class="cls-103" x1="65.32" y1="157.19" x2="403.72" y2="-179.32"/><line class="cls-104" x1="69.1" y1="157.72" x2="407.5" y2="-178.79"/><line class="cls-105" x1="72.88" y1="158.24" x2="411.28" y2="-178.27"/><line class="cls-106" x1="76.66" y1="158.76" x2="415.06" y2="-177.75"/><line class="cls-107" x1="80.44" y1="159.28" x2="418.84" y2="-177.23"/><line class="cls-108" x1="84.22" y1="159.8" x2="422.62" y2="-176.71"/><line class="cls-109" x1="88" y1="160.32" x2="426.4" y2="-176.19"/><line class="cls-110" x1="91.78" y1="160.85" x2="430.18" y2="-175.66"/><line class="cls-111" x1="95.56" y1="161.37" x2="433.96" y2="-175.14"/><line class="cls-112" x1="99.34" y1="161.89" x2="437.74" y2="-174.62"/><line class="cls-113" x1="103.12" y1="162.41" x2="441.52" y2="-174.1"/><line class="cls-114" x1="106.9" y1="162.93" x2="445.3" y2="-173.58"/><line class="cls-115" x1="110.68" y1="163.45" x2="449.08" y2="-173.06"/><line class="cls-116" x1="114.46" y1="163.98" x2="452.86" y2="-172.53"/><line class="cls-117" x1="118.24" y1="164.5" x2="456.64" y2="-172.01"/><line class="cls-118" x1="122.02" y1="165.02" x2="460.42" y2="-171.49"/><line class="cls-119" x1="125.8" y1="165.54" x2="464.2" y2="-170.97"/><line class="cls-120" x1="129.58" y1="166.06" x2="467.98" y2="-170.45"/><line class="cls-121" x1="133.36" y1="166.59" x2="471.77" y2="-169.92"/><line class="cls-122" x1="137.14" y1="167.11" x2="475.55" y2="-169.4"/><line class="cls-123" x1="140.93" y1="167.63" x2="479.33" y2="-168.88"/><line class="cls-124" x1="144.71" y1="168.15" x2="483.11" y2="-168.36"/><line class="cls-125" x1="148.49" y1="168.67" x2="486.89" y2="-167.84"/><line class="cls-126" x1="152.27" y1="169.19" x2="490.67" y2="-167.32"/><line class="cls-127" x1="156.05" y1="169.72" x2="494.45" y2="-166.79"/><line class="cls-128" x1="159.83" y1="170.24" x2="498.23" y2="-166.27"/><line class="cls-129" x1="163.61" y1="170.76" x2="502.01" y2="-165.75"/><line class="cls-130" x1="167.39" y1="171.28" x2="505.79" y2="-165.23"/><line class="cls-131" x1="171.17" y1="171.8" x2="509.57" y2="-164.71"/></g><g class="cls-17"><rect class="cls-5" x="10" y="381" width="152" height="24"/></g><path class="cls-10" d="M161,404.89H11V379c1-2.78,3.26-5,6-5H161Z"/><g class="cls-132"><line class="cls-7" x1="-128.96" y1="452.39" x2="209.44" y2="115.88"/><line class="cls-21" x1="-125.18" y1="452.91" x2="213.22" y2="116.4"/><line class="cls-22" x1="-121.4" y1="453.43" x2="217" y2="116.92"/><line class="cls-23" x1="-117.62" y1="453.96" x2="220.78" y2="117.45"/><line class="cls-24" x1="-113.84" y1="454.48" x2="224.56" y2="117.97"/><line class="cls-25" x1="-110.06" y1="455" x2="228.34" y2="118.49"/><line class="cls-26" x1="-106.28" y1="455.52" x2="232.12" y2="119.01"/><line class="cls-27" x1="-102.5" y1="456.04" x2="235.9" y2="119.53"/><line class="cls-28" x1="-98.72" y1="456.56" x2="239.68" y2="120.05"/><line class="cls-29" x1="-94.94" y1="457.09" x2="243.46" y2="120.58"/><line class="cls-30" x1="-91.16" y1="457.61" x2="247.24" y2="121.1"/><line class="cls-31" x1="-87.38" y1="458.13" x2="251.02" y2="121.62"/><line class="cls-32" x1="-83.6" y1="458.65" x2="254.8" y2="122.14"/><line class="cls-33" x1="-79.82" y1="459.17" x2="258.58" y2="122.66"/><line class="cls-34" x1="-76.04" y1="459.69" x2="262.37" y2="123.18"/><line class="cls-35" x1="-72.26" y1="460.22" x2="266.15" y2="123.71"/><line class="cls-36" x1="-68.48" y1="460.74" x2="269.93" y2="124.23"/><line class="cls-37" x1="-64.69" y1="461.26" x2="273.71" y2="124.75"/><line class="cls-38" x1="-60.91" y1="461.78" x2="277.49" y2="125.27"/><line class="cls-39" x1="-57.13" y1="462.3" x2="281.27" y2="125.79"/><line class="cls-40" x1="-53.35" y1="462.82" x2="285.05" y2="126.32"/><line class="cls-41" x1="-49.57" y1="463.35" x2="288.83" y2="126.84"/><line class="cls-42" x1="-45.79" y1="463.87" x2="292.61" y2="127.36"/><line class="cls-43" x1="-42.01" y1="464.39" x2="296.39" y2="127.88"/><line class="cls-44" x1="-38.23" y1="464.91" x2="300.17" y2="128.4"/><line class="cls-45" x1="-34.45" y1="465.43" x2="303.95" y2="128.92"/><line class="cls-46" x1="-30.67" y1="465.96" x2="307.73" y2="129.45"/><line class="cls-47" x1="-26.89" y1="466.48" x2="311.51" y2="129.97"/><line class="cls-48" x1="-23.11" y1="467" x2="315.29" y2="130.49"/><line class="cls-49" x1="-19.33" y1="467.52" x2="319.07" y2="131.01"/><line class="cls-50" x1="-15.55" y1="468.04" x2="322.85" y2="131.53"/><line class="cls-51" x1="-11.77" y1="468.56" x2="326.63" y2="132.05"/><line class="cls-52" x1="-7.99" y1="469.09" x2="330.41" y2="132.58"/><line class="cls-53" x1="-4.21" y1="469.61" x2="334.19" y2="133.1"/><line class="cls-54" x1="-0.43" y1="470.13" x2="337.97" y2="133.62"/><line class="cls-55" x1="3.35" y1="470.65" x2="341.75" y2="134.14"/><line class="cls-56" x1="7.13" y1="471.17" x2="345.54" y2="134.66"/><line class="cls-57" x1="10.91" y1="471.69" x2="349.32" y2="135.18"/><line class="cls-58" x1="14.7" y1="472.22" x2="353.1" y2="135.71"/><line class="cls-59" x1="18.48" y1="472.74" x2="356.88" y2="136.23"/><line class="cls-60" x1="22.26" y1="473.26" x2="360.66" y2="136.75"/><line class="cls-61" x1="26.04" y1="473.78" x2="364.44" y2="137.27"/><line class="cls-62" x1="29.82" y1="474.3" x2="368.22" y2="137.79"/><line class="cls-63" x1="33.6" y1="474.82" x2="372" y2="138.31"/><line class="cls-64" x1="37.38" y1="475.35" x2="375.78" y2="138.84"/><line class="cls-65" x1="41.16" y1="475.87" x2="379.56" y2="139.36"/><line class="cls-66" x1="44.94" y1="476.39" x2="383.34" y2="139.88"/><line class="cls-67" x1="48.72" y1="476.91" x2="387.12" y2="140.4"/><line class="cls-68" x1="52.5" y1="477.43" x2="390.9" y2="140.92"/><line class="cls-69" x1="56.28" y1="477.96" x2="394.68" y2="141.45"/><line class="cls-70" x1="60.06" y1="478.48" x2="398.46" y2="141.97"/><line class="cls-71" x1="63.84" y1="479" x2="402.24" y2="142.49"/><line class="cls-72" x1="67.62" y1="479.52" x2="406.02" y2="143.01"/><line class="cls-73" x1="71.4" y1="480.04" x2="409.8" y2="143.53"/><line class="cls-74" x1="75.18" y1="480.56" x2="413.58" y2="144.05"/><line class="cls-75" x1="78.96" y1="481.09" x2="417.36" y2="144.58"/><line class="cls-76" x1="82.74" y1="481.61" x2="421.14" y2="145.1"/><line class="cls-77" x1="86.52" y1="482.13" x2="424.92" y2="145.62"/><line class="cls-78" x1="90.3" y1="482.65" x2="428.71" y2="146.14"/><line class="cls-79" x1="94.08" y1="483.17" x2="432.49" y2="146.66"/><line class="cls-80" x1="97.87" y1="483.69" x2="436.27" y2="147.18"/><line class="cls-81" x1="101.65" y1="484.22" x2="440.05" y2="147.71"/><line class="cls-82" x1="105.43" y1="484.74" x2="443.83" y2="148.23"/><line class="cls-83" x1="109.21" y1="485.26" x2="447.61" y2="148.75"/><line class="cls-84" x1="112.99" y1="485.78" x2="451.39" y2="149.27"/><line class="cls-85" x1="116.77" y1="486.3" x2="455.17" y2="149.79"/><line class="cls-86" x1="120.55" y1="486.82" x2="458.95" y2="150.31"/><line class="cls-87" x1="124.33" y1="487.35" x2="462.73" y2="150.84"/><line class="cls-88" x1="128.11" y1="487.87" x2="466.51" y2="151.36"/><line class="cls-89" x1="131.89" y1="488.39" x2="470.29" y2="151.88"/><line class="cls-90" x1="135.67" y1="488.91" x2="474.07" y2="152.4"/><line class="cls-91" x1="139.45" y1="489.43" x2="477.85" y2="152.92"/><line class="cls-92" x1="143.23" y1="489.95" x2="481.63" y2="153.45"/><line class="cls-93" x1="147.01" y1="490.48" x2="485.41" y2="153.97"/><line class="cls-94" x1="150.79" y1="491" x2="489.19" y2="154.49"/><line class="cls-95" x1="154.57" y1="491.52" x2="492.97" y2="155.01"/><line class="cls-96" x1="158.35" y1="492.04" x2="496.75" y2="155.53"/><line class="cls-97" x1="162.13" y1="492.56" x2="500.53" y2="156.05"/><line class="cls-98" x1="165.91" y1="493.09" x2="504.31" y2="156.58"/><line class="cls-99" x1="169.69" y1="493.61" x2="508.1" y2="157.1"/><line class="cls-100" x1="173.47" y1="494.13" x2="511.88" y2="157.62"/><line class="cls-101" x1="177.25" y1="494.65" x2="515.66" y2="158.14"/><line class="cls-102" x1="181.04" y1="495.17" x2="519.44" y2="158.66"/><line class="cls-103" x1="184.82" y1="495.69" x2="523.22" y2="159.18"/><line class="cls-104" x1="188.6" y1="496.22" x2="527" y2="159.71"/><line class="cls-105" x1="192.38" y1="496.74" x2="530.78" y2="160.23"/><line class="cls-106" x1="196.16" y1="497.26" x2="534.56" y2="160.75"/><line class="cls-107" x1="199.94" y1="497.78" x2="538.34" y2="161.27"/><line class="cls-108" x1="203.72" y1="498.3" x2="542.12" y2="161.79"/><line class="cls-109" x1="207.5" y1="498.82" x2="545.9" y2="162.31"/><line class="cls-110" x1="211.28" y1="499.35" x2="549.68" y2="162.84"/><line class="cls-111" x1="215.06" y1="499.87" x2="553.46" y2="163.36"/><line class="cls-112" x1="218.84" y1="500.39" x2="557.24" y2="163.88"/><line class="cls-113" x1="222.62" y1="500.91" x2="561.02" y2="164.4"/><line class="cls-114" x1="226.4" y1="501.43" x2="564.8" y2="164.92"/><line class="cls-115" x1="230.18" y1="501.95" x2="568.58" y2="165.44"/><line class="cls-116" x1="233.96" y1="502.48" x2="572.36" y2="165.97"/><line class="cls-117" x1="237.74" y1="503" x2="576.14" y2="166.49"/><line class="cls-118" x1="241.52" y1="503.52" x2="579.92" y2="167.01"/><line class="cls-119" x1="245.3" y1="504.04" x2="583.7" y2="167.53"/><line class="cls-120" x1="249.08" y1="504.56" x2="587.48" y2="168.05"/><line class="cls-121" x1="252.86" y1="505.09" x2="591.27" y2="168.58"/><line class="cls-122" x1="256.64" y1="505.61" x2="595.05" y2="169.1"/><line class="cls-123" x1="260.43" y1="506.13" x2="598.83" y2="169.62"/><line class="cls-124" x1="264.21" y1="506.65" x2="602.61" y2="170.14"/><line class="cls-125" x1="267.99" y1="507.17" x2="606.39" y2="170.66"/><line class="cls-126" x1="271.77" y1="507.69" x2="610.17" y2="171.18"/><line class="cls-127" x1="275.55" y1="508.22" x2="613.95" y2="171.71"/><line class="cls-128" x1="279.33" y1="508.74" x2="617.73" y2="172.23"/><line class="cls-129" x1="283.11" y1="509.26" x2="621.51" y2="172.75"/><line class="cls-130" x1="286.89" y1="509.78" x2="625.29" y2="173.27"/><line class="cls-131" x1="290.67" y1="510.3" x2="629.07" y2="173.79"/></g><path class="cls-9" d="M19.5,372.5V312a2.5,2.5,0,0,1,2.5-2.5H80a2.5,2.5,0,0,1,2.5,2.5v60.5Z"/><path class="cls-10" d="M80,310a2,2,0,0,1,2,2v60H20V312a2,2,0,0,1,2-2H80m0-1H22a3,3,0,0,0-3,3v61H83V312a3,3,0,0,0-3-3Z"/><path class="cls-9" d="M89.5,372.5V312a2.5,2.5,0,0,1,2.5-2.5h58a2.5,2.5,0,0,1,2.5,2.5v60.5Z"/><path class="cls-10" d="M150,310a2,2,0,0,1,2,2v60H90V312a2,2,0,0,1,2-2h58m0-1H92a3,3,0,0,0-3,3v61h64V312a3,3,0,0,0-3-3Z"/><polygon class="cls-10" points="11.04 372 161 372 161 391 11 391 11.04 372"/><path class="cls-133" d="M146.35,78A15.67,15.67,0,0,1,162,93.68V390.32A15.67,15.67,0,0,1,146.35,406H25.65A15.67,15.67,0,0,1,10,390.32V93.68A15.67,15.67,0,0,1,25.65,78H146.35m0-10H25.65A25.69,25.69,0,0,0,0,93.68V390.32A25.69,25.69,0,0,0,25.65,416H146.35A25.69,25.69,0,0,0,172,390.32V93.68A25.69,25.69,0,0,0,146.35,68Z"/><path class="cls-18" d="M146.35,78A15.67,15.67,0,0,1,162,93.68V390.32A15.67,15.67,0,0,1,146.35,406H25.65A15.67,15.67,0,0,1,10,390.32V93.68A15.67,15.67,0,0,1,25.65,78H146.35m0-9H25.65A24.69,24.69,0,0,0,1,93.68V390.32A24.69,24.69,0,0,0,25.65,415H146.35A24.69,24.69,0,0,0,171,390.32V93.68A24.69,24.69,0,0,0,146.35,69Z"/><g class="cls-17"><rect class="cls-5" x="10" y="79.5" width="6" height="321.5"/></g><g class="cls-17"><rect class="cls-5" x="156" y="80" width="6" height="322"/></g><g class="cls-17"><rect class="cls-5" x="11" y="79" width="150" height="17"/></g><g class="cls-17"><rect class="cls-5" x="11" y="391" width="150" height="14"/></g><path class="cls-5" d="M144.91,79A16.11,16.11,0,0,1,161,95.09V388.91A16.11,16.11,0,0,1,144.91,405H27.09A16.11,16.11,0,0,1,11,388.91V95.09A16.11,16.11,0,0,1,27.09,79H144.91m0-8H27.09A24.09,24.09,0,0,0,3,95.09V388.91A24.09,24.09,0,0,0,27.09,413H144.91A24.09,24.09,0,0,0,169,388.91V95.09A24.09,24.09,0,0,0,144.91,71Z"/><path class="cls-5" d="M130.81,72H41v7c1.2,0,1.7-.2,2.65.64a3.7,3.7,0,0,1,1.16,3.1A6.88,6.88,0,0,0,45,84.83a9.16,9.16,0,0,0,2.43,3.93,7.19,7.19,0,0,0,3.62,2,20.63,20.63,0,0,0,4.28.24h61a20.64,20.64,0,0,0,4.28-.24,7.19,7.19,0,0,0,3.62-2,9.16,9.16,0,0,0,2.43-3.93,6.89,6.89,0,0,0,.23-2.09,3.7,3.7,0,0,1,1.16-3.1c.95-.84,1.53-.64,2.73-.64Z"/><rect class="cls-18" x="171" y="149" width="1" height="40"/><rect class="cls-133" x="172" y="149" width="1" height="40"/><line class="cls-134" x1="160.5" y1="224" x2="160.5" y2="219"/><rect class="cls-135" x="664.5" y="269.5" width="17" height="17" rx="2" ry="2"/><rect class="cls-136" x="432" y="255" width="326" height="150"/><g class="cls-137"><rect class="cls-10" x="425" y="247" width="334" height="162"/><line class="cls-7" x1="303.04" y1="385.39" x2="641.44" y2="48.88"/><line class="cls-21" x1="306.82" y1="385.91" x2="645.22" y2="49.4"/><line class="cls-22" x1="310.6" y1="386.43" x2="649" y2="49.92"/><line class="cls-23" x1="314.38" y1="386.96" x2="652.78" y2="50.45"/><line class="cls-24" x1="318.16" y1="387.48" x2="656.56" y2="50.97"/><line class="cls-25" x1="321.94" y1="388" x2="660.34" y2="51.49"/><line class="cls-26" x1="325.72" y1="388.52" x2="664.12" y2="52.01"/><line class="cls-27" x1="329.5" y1="389.04" x2="667.9" y2="52.53"/><line class="cls-28" x1="333.28" y1="389.56" x2="671.68" y2="53.05"/><line class="cls-29" x1="337.06" y1="390.09" x2="675.46" y2="53.58"/><line class="cls-30" x1="340.84" y1="390.61" x2="679.24" y2="54.1"/><line class="cls-31" x1="344.62" y1="391.13" x2="683.02" y2="54.62"/><line class="cls-32" x1="348.4" y1="391.65" x2="686.8" y2="55.14"/><line class="cls-33" x1="352.18" y1="392.17" x2="690.58" y2="55.66"/><line class="cls-34" x1="355.96" y1="392.69" x2="694.37" y2="56.18"/><line class="cls-35" x1="359.74" y1="393.22" x2="698.15" y2="56.71"/><line class="cls-36" x1="363.52" y1="393.74" x2="701.93" y2="57.23"/><line class="cls-37" x1="367.31" y1="394.26" x2="705.71" y2="57.75"/><line class="cls-38" x1="371.09" y1="394.78" x2="709.49" y2="58.27"/><line class="cls-39" x1="374.87" y1="395.3" x2="713.27" y2="58.79"/><line class="cls-40" x1="378.65" y1="395.82" x2="717.05" y2="59.32"/><line class="cls-41" x1="382.43" y1="396.35" x2="720.83" y2="59.84"/><line class="cls-42" x1="386.21" y1="396.87" x2="724.61" y2="60.36"/><line class="cls-43" x1="389.99" y1="397.39" x2="728.39" y2="60.88"/><line class="cls-44" x1="393.77" y1="397.91" x2="732.17" y2="61.4"/><line class="cls-45" x1="397.55" y1="398.43" x2="735.95" y2="61.92"/><line class="cls-46" x1="401.33" y1="398.96" x2="739.73" y2="62.45"/><line class="cls-47" x1="405.11" y1="399.48" x2="743.51" y2="62.97"/><line class="cls-48" x1="408.89" y1="400" x2="747.29" y2="63.49"/><line class="cls-49" x1="412.67" y1="400.52" x2="751.07" y2="64.01"/><line class="cls-50" x1="416.45" y1="401.04" x2="754.85" y2="64.53"/><line class="cls-51" x1="420.23" y1="401.56" x2="758.63" y2="65.05"/><line class="cls-52" x1="424.01" y1="402.09" x2="762.41" y2="65.58"/><line class="cls-53" x1="427.79" y1="402.61" x2="766.19" y2="66.1"/><line class="cls-54" x1="431.57" y1="403.13" x2="769.97" y2="66.62"/><line class="cls-55" x1="435.35" y1="403.65" x2="773.75" y2="67.14"/><line class="cls-56" x1="439.13" y1="404.17" x2="777.54" y2="67.66"/><line class="cls-57" x1="442.91" y1="404.69" x2="781.32" y2="68.18"/><line class="cls-58" x1="446.7" y1="405.22" x2="785.1" y2="68.71"/><line class="cls-59" x1="450.48" y1="405.74" x2="788.88" y2="69.23"/><line class="cls-60" x1="454.26" y1="406.26" x2="792.66" y2="69.75"/><line class="cls-61" x1="458.04" y1="406.78" x2="796.44" y2="70.27"/><line class="cls-62" x1="461.82" y1="407.3" x2="800.22" y2="70.79"/><line class="cls-63" x1="465.6" y1="407.82" x2="804" y2="71.31"/><line class="cls-64" x1="469.38" y1="408.35" x2="807.78" y2="71.84"/><line class="cls-65" x1="473.16" y1="408.87" x2="811.56" y2="72.36"/><line class="cls-66" x1="476.94" y1="409.39" x2="815.34" y2="72.88"/><line class="cls-67" x1="480.72" y1="409.91" x2="819.12" y2="73.4"/><line class="cls-68" x1="484.5" y1="410.43" x2="822.9" y2="73.92"/><line class="cls-69" x1="488.28" y1="410.96" x2="826.68" y2="74.45"/><line class="cls-70" x1="492.06" y1="411.48" x2="830.46" y2="74.97"/><line class="cls-71" x1="495.84" y1="412" x2="834.24" y2="75.49"/><line class="cls-72" x1="499.62" y1="412.52" x2="838.02" y2="76.01"/><line class="cls-73" x1="503.4" y1="413.04" x2="841.8" y2="76.53"/><line class="cls-74" x1="507.18" y1="413.56" x2="845.58" y2="77.05"/><line class="cls-75" x1="510.96" y1="414.09" x2="849.36" y2="77.58"/><line class="cls-76" x1="514.74" y1="414.61" x2="853.14" y2="78.1"/><line class="cls-77" x1="518.52" y1="415.13" x2="856.92" y2="78.62"/><line class="cls-78" x1="522.3" y1="415.65" x2="860.71" y2="79.14"/><line class="cls-79" x1="526.08" y1="416.17" x2="864.49" y2="79.66"/><line class="cls-80" x1="529.87" y1="416.69" x2="868.27" y2="80.18"/><line class="cls-81" x1="533.65" y1="417.22" x2="872.05" y2="80.71"/><line class="cls-82" x1="537.43" y1="417.74" x2="875.83" y2="81.23"/><line class="cls-83" x1="541.21" y1="418.26" x2="879.61" y2="81.75"/><line class="cls-84" x1="544.99" y1="418.78" x2="883.39" y2="82.27"/><line class="cls-85" x1="548.77" y1="419.3" x2="887.17" y2="82.79"/><line class="cls-86" x1="552.55" y1="419.82" x2="890.95" y2="83.31"/><line class="cls-87" x1="556.33" y1="420.35" x2="894.73" y2="83.84"/><line class="cls-88" x1="560.11" y1="420.87" x2="898.51" y2="84.36"/><line class="cls-89" x1="563.89" y1="421.39" x2="902.29" y2="84.88"/><line class="cls-90" x1="567.67" y1="421.91" x2="906.07" y2="85.4"/><line class="cls-91" x1="571.45" y1="422.43" x2="909.85" y2="85.92"/><line class="cls-92" x1="575.23" y1="422.95" x2="913.63" y2="86.45"/><line class="cls-93" x1="579.01" y1="423.48" x2="917.41" y2="86.97"/><line class="cls-94" x1="582.79" y1="424" x2="921.19" y2="87.49"/><line class="cls-95" x1="586.57" y1="424.52" x2="924.97" y2="88.01"/><line class="cls-96" x1="590.35" y1="425.04" x2="928.75" y2="88.53"/><line class="cls-97" x1="594.13" y1="425.56" x2="932.53" y2="89.05"/><line class="cls-98" x1="597.91" y1="426.09" x2="936.31" y2="89.58"/><line class="cls-99" x1="601.69" y1="426.61" x2="940.1" y2="90.1"/><line class="cls-100" x1="605.47" y1="427.13" x2="943.88" y2="90.62"/><line class="cls-101" x1="609.25" y1="427.65" x2="947.66" y2="91.14"/><line class="cls-102" x1="613.04" y1="428.17" x2="951.44" y2="91.66"/><line class="cls-103" x1="616.82" y1="428.69" x2="955.22" y2="92.18"/><line class="cls-104" x1="620.6" y1="429.22" x2="959" y2="92.71"/><line class="cls-105" x1="624.38" y1="429.74" x2="962.78" y2="93.23"/><line class="cls-106" x1="628.16" y1="430.26" x2="966.56" y2="93.75"/><line class="cls-107" x1="631.94" y1="430.78" x2="970.34" y2="94.27"/><line class="cls-108" x1="635.72" y1="431.3" x2="974.12" y2="94.79"/><line class="cls-109" x1="639.5" y1="431.82" x2="977.9" y2="95.31"/><line class="cls-110" x1="643.28" y1="432.35" x2="981.68" y2="95.84"/><line class="cls-111" x1="647.06" y1="432.87" x2="985.46" y2="96.36"/><line class="cls-112" x1="650.84" y1="433.39" x2="989.24" y2="96.88"/><line class="cls-113" x1="654.62" y1="433.91" x2="993.02" y2="97.4"/><line class="cls-114" x1="658.4" y1="434.43" x2="996.8" y2="97.92"/><line class="cls-115" x1="662.18" y1="434.95" x2="1000.58" y2="98.44"/><line class="cls-116" x1="665.96" y1="435.48" x2="1004.36" y2="98.97"/><line class="cls-117" x1="669.74" y1="436" x2="1008.14" y2="99.49"/><line class="cls-118" x1="673.52" y1="436.52" x2="1011.92" y2="100.01"/><line class="cls-119" x1="677.3" y1="437.04" x2="1015.7" y2="100.53"/><line class="cls-120" x1="681.08" y1="437.56" x2="1019.48" y2="101.05"/><line class="cls-121" x1="684.86" y1="438.09" x2="1023.27" y2="101.58"/><line class="cls-122" x1="688.64" y1="438.61" x2="1027.05" y2="102.1"/><line class="cls-123" x1="692.43" y1="439.13" x2="1030.83" y2="102.62"/><line class="cls-124" x1="696.21" y1="439.65" x2="1034.61" y2="103.14"/><line class="cls-125" x1="699.99" y1="440.17" x2="1038.39" y2="103.66"/><line class="cls-126" x1="703.77" y1="440.69" x2="1042.17" y2="104.18"/><line class="cls-127" x1="707.55" y1="441.22" x2="1045.95" y2="104.71"/><line class="cls-128" x1="711.33" y1="441.74" x2="1049.73" y2="105.23"/><line class="cls-129" x1="715.11" y1="442.26" x2="1053.51" y2="105.75"/><line class="cls-130" x1="718.89" y1="442.78" x2="1057.29" y2="106.27"/><line class="cls-131" x1="722.67" y1="443.3" x2="1061.07" y2="106.79"/><g class="cls-17"><rect class="cls-5" x="432" y="255" width="326" height="150"/></g></g><path class="cls-133" d="M743.32,254A15.67,15.67,0,0,1,759,269.65V390.35A15.67,15.67,0,0,1,743.32,406H446.68A15.67,15.67,0,0,1,431,390.35V269.65A15.67,15.67,0,0,1,446.68,254H743.32m0-10H446.68A25.69,25.69,0,0,0,421,269.65V390.35A25.69,25.69,0,0,0,446.68,416H743.32A25.69,25.69,0,0,0,769,390.35V269.65A25.69,25.69,0,0,0,743.32,244Z"/><path class="cls-18" d="M743.32,254A15.67,15.67,0,0,1,759,269.65V390.35A15.67,15.67,0,0,1,743.32,406H446.68A15.67,15.67,0,0,1,431,390.35V269.65A15.67,15.67,0,0,1,446.68,254H743.32m0-9H446.68A24.69,24.69,0,0,0,422,269.65V390.35A24.69,24.69,0,0,0,446.68,415H743.32A24.69,24.69,0,0,0,768,390.35V269.65A24.69,24.69,0,0,0,743.32,245Z"/><path class="cls-5" d="M741.91,255A16.11,16.11,0,0,1,758,271.09V388.91A16.11,16.11,0,0,1,741.91,405H448.09A16.11,16.11,0,0,1,432,388.91V271.09A16.11,16.11,0,0,1,448.09,255H741.91m0-8H448.09A24.09,24.09,0,0,0,424,271.09V388.91A24.09,24.09,0,0,0,448.09,413H741.91A24.09,24.09,0,0,0,766,388.91V271.09A24.09,24.09,0,0,0,741.91,247Z"/><path class="cls-5" d="M425,285.19V375h7c0-1.2-.2-1.7.64-2.65a3.7,3.7,0,0,1,3.1-1.16,6.88,6.88,0,0,0,2.09-.23,9.16,9.16,0,0,0,3.93-2.43,7.19,7.19,0,0,0,2-3.62,20.63,20.63,0,0,0,.24-4.28v-61a20.64,20.64,0,0,0-.24-4.28,7.19,7.19,0,0,0-2-3.62,9.16,9.16,0,0,0-3.93-2.43,6.89,6.89,0,0,0-2.09-.23,3.7,3.7,0,0,1-3.1-1.16c-.84-.95-.64-1.53-.64-2.73Z"/><rect class="cls-18" x="502" y="244" width="40" height="1"/><rect class="cls-133" x="502" y="243" width="40" height="1"/><line class="cls-7" x1="11" y1="371.5" x2="13" y2="371.5"/><line class="cls-138" x1="14.99" y1="371.5" x2="157.01" y2="371.5"/><line class="cls-7" x1="158" y1="371.5" x2="160" y2="371.5"/><line class="cls-13" x1="155.5" y1="84" x2="155.5" y2="401"/><line class="cls-13" x1="16.5" y1="84" x2="16.5" y2="401"/><line class="cls-139" x1="59.5" y1="401" x2="112.5" y2="401"/><rect class="cls-9" x="17" y="119" width="30" height="12"/><rect class="cls-140" x="17.5" y="96.5" width="15" height="6"/><rect class="cls-140" x="139.5" y="96.5" width="15" height="6"/><rect class="cls-7" x="11.5" y="95.5" width="149" height="295"/><rect class="cls-10" x="448" y="255" width="296" height="14"/><path class="cls-9" d="M470.5,379.5V361a2.5,2.5,0,0,1,2.5-2.5h58a2.5,2.5,0,0,1,2.5,2.5v18.5Z"/><path class="cls-10" d="M531,359a2,2,0,0,1,2,2v18H471V361a2,2,0,0,1,2-2h58m0-1H473a3,3,0,0,0-3,3v19h64V361a3,3,0,0,0-3-3Z"/><path class="cls-9" d="M564.5,379.5V361a2.5,2.5,0,0,1,2.5-2.5h58a2.5,2.5,0,0,1,2.5,2.5v18.5Z"/><path class="cls-10" d="M625,359a2,2,0,0,1,2,2v18H565V361a2,2,0,0,1,2-2h58m0-1H567a3,3,0,0,0-3,3v19h64V361a3,3,0,0,0-3-3Z"/><path class="cls-9" d="M658.5,379.5V361a2.5,2.5,0,0,1,2.5-2.5h58a2.5,2.5,0,0,1,2.5,2.5v18.5Z"/><path class="cls-10" d="M719,359a2,2,0,0,1,2,2v18H659V361a2,2,0,0,1,2-2h58m0-1H661a3,3,0,0,0-3,3v19h64V361a3,3,0,0,0-3-3Z"/><rect class="cls-10" x="448" y="379" width="296" height="15"/><line class="cls-7" x1="433" y1="378.5" x2="435" y2="378.5"/><line class="cls-141" x1="437.01" y1="378.5" x2="755.5" y2="378.5"/><line class="cls-7" x1="756.5" y1="378.5" x2="758.5" y2="378.5"/><line class="cls-7" x1="433" y1="269.5" x2="435" y2="269.5"/><line class="cls-141" x1="437.01" y1="269.5" x2="755.5" y2="269.5"/><line class="cls-7" x1="756.5" y1="269.5" x2="758.5" y2="269.5"/><line class="cls-13" x1="738.5" y1="255.5" x2="738.5" y2="405"/><line class="cls-13" x1="453.5" y1="255.5" x2="453.5" y2="405"/><g class="cls-17"><rect class="cls-5" x="449" y="255" width="4" height="150"/></g><g class="cls-17"><rect class="cls-5" x="739" y="255" width="4" height="150"/></g><path class="cls-16" d="M743,256V393H449V256H743m1-1H448V394H744V255Z"/><line class="cls-139" x1="559.5" y1="400" x2="636" y2="400"/><circle class="cls-140" cx="67.67" cy="379" r="4.5"/><rect class="cls-9" x="58.67" y="386" width="18" height="2"/><rect class="cls-9" x="22" y="386" width="18" height="2"/><polygon class="cls-140" points="31 374.15 32.09 377.5 35.62 377.5 32.76 379.57 33.85 382.93 31 380.85 28.15 382.93 29.24 379.57 26.38 377.5 29.91 377.5 31 374.15"/><rect class="cls-9" x="95.33" y="386" width="18" height="2"/><polygon class="cls-140" points="99.97 383.5 104.33 374.64 108.7 383.5 99.97 383.5"/><rect class="cls-9" x="132" y="386" width="18" height="2"/><polygon class="cls-140" points="143.6 374.5 138.4 374.5 135.8 379 138.4 383.5 143.6 383.5 146.2 379 143.6 374.5"/><circle class="cls-140" cx="554.18" cy="386" r="4.5"/><rect class="cls-9" x="561.18" y="386" width="18" height="2"/><circle class="cls-140" cx="338.5" cy="384.5" r="6"/><rect class="cls-9" x="350" y="384" width="18" height="4"/><rect class="cls-9" x="496" y="386" width="18" height="2"/><polygon class="cls-140" points="486 381.15 487.09 384.5 490.62 384.5 487.76 386.57 488.85 389.93 486 387.85 483.15 389.93 484.24 386.57 481.38 384.5 484.91 384.5 486 381.15"/><rect class="cls-9" x="244" y="384" width="18" height="4"/><polygon class="cls-140" points="233.38 378.15 234.8 382.5 239.38 382.5 235.68 385.2 237.09 389.56 233.38 386.86 229.68 389.56 231.09 385.2 227.38 382.5 231.97 382.5 233.38 378.15"/><rect class="cls-9" x="628.01" y="386" width="18" height="2"/><polygon class="cls-140" points="616.32 390.5 620.68 381.64 625.04 390.5 616.32 390.5"/><rect class="cls-9" x="696" y="386" width="18" height="2"/><polygon class="cls-140" points="689.6 381.5 684.4 381.5 681.8 386 684.4 390.5 689.6 390.5 692.2 386 689.6 381.5"/><rect class="cls-140" x="454.5" y="259.5" width="15" height="6"/><rect class="cls-140" x="722.5" y="259.5" width="15" height="6"/><rect class="cls-9" x="580" y="259" width="30" height="7"/><rect class="cls-9" x="19" y="212" width="26" height="6"/><rect class="cls-9" x="19.5" y="145.5" width="63" height="63" rx="2.5" ry="2.5"/><path class="cls-10" d="M80,146a2,2,0,0,1,2,2v58a2,2,0,0,1-2,2H22a2,2,0,0,1-2-2V148a2,2,0,0,1,2-2H80m0-1H22a3,3,0,0,0-3,3v58a3,3,0,0,0,3,3H80a3,3,0,0,0,3-3V148a3,3,0,0,0-3-3Z"/><rect class="cls-9" x="89" y="212" width="26" height="6"/><rect class="cls-9" x="89.5" y="145.5" width="63" height="63" rx="2.5" ry="2.5"/><path class="cls-10" d="M150,146a2,2,0,0,1,2,2v58a2,2,0,0,1-2,2H92a2,2,0,0,1-2-2V148a2,2,0,0,1,2-2h58m0-1H92a3,3,0,0,0-3,3v58a3,3,0,0,0,3,3h58a3,3,0,0,0,3-3V148a3,3,0,0,0-3-3Z"/><rect class="cls-9" x="19" y="294" width="26" height="6"/><rect class="cls-9" x="19.5" y="227.5" width="63" height="63" rx="2.5" ry="2.5"/><path class="cls-10" d="M80,228a2,2,0,0,1,2,2v58a2,2,0,0,1-2,2H22a2,2,0,0,1-2-2V230a2,2,0,0,1,2-2H80m0-1H22a3,3,0,0,0-3,3v58a3,3,0,0,0,3,3H80a3,3,0,0,0,3-3V230a3,3,0,0,0-3-3Z"/><rect class="cls-9" x="89" y="294" width="26" height="6"/><rect class="cls-9" x="89.5" y="227.5" width="63" height="63" rx="2.5" ry="2.5"/><path class="cls-16" d="M150,228a2,2,0,0,1,2,2v58a2,2,0,0,1-2,2H92a2,2,0,0,1-2-2V230a2,2,0,0,1,2-2h58m0-1H92a3,3,0,0,0-3,3v58a3,3,0,0,0,3,3h58a3,3,0,0,0,3-3V230a3,3,0,0,0-3-3Z"/><line class="cls-142" x1="124" y1="209.5" x2="117" y2="209.5"/><line class="cls-142" x1="124" y1="226.5" x2="117" y2="226.5"/><line class="cls-142" x1="120.5" y1="209" x2="120.5" y2="227"/><line class="cls-142" x1="83.5" y1="257" x2="83.5" y2="264"/><line class="cls-142" x1="88.5" y1="257" x2="88.5" y2="264"/><line class="cls-142" x1="83" y1="260.5" x2="89" y2="260.5"/><line class="cls-142" x1="12.5" y1="257" x2="12.5" y2="264"/><line class="cls-142" x1="18.5" y1="257" x2="18.5" y2="264"/><line class="cls-142" x1="13" y1="260.5" x2="19" y2="260.5"/><rect class="cls-9" x="470" y="343" width="26" height="6"/><rect class="cls-9" x="470.5" y="276.5" width="63" height="63" rx="2.5" ry="2.5"/><path class="cls-10" d="M531,277a2,2,0,0,1,2,2v58a2,2,0,0,1-2,2H473a2,2,0,0,1-2-2V279a2,2,0,0,1,2-2h58m0-1H473a3,3,0,0,0-3,3v58a3,3,0,0,0,3,3h58a3,3,0,0,0,3-3V279a3,3,0,0,0-3-3Z"/><rect class="cls-9" x="564" y="343" width="26" height="6"/><rect class="cls-9" x="564.5" y="276.5" width="63" height="63" rx="2.5" ry="2.5"/><path class="cls-10" d="M625,277a2,2,0,0,1,2,2v58a2,2,0,0,1-2,2H567a2,2,0,0,1-2-2V279a2,2,0,0,1,2-2h58m0-1H567a3,3,0,0,0-3,3v58a3,3,0,0,0,3,3h58a3,3,0,0,0,3-3V279a3,3,0,0,0-3-3Z"/><rect class="cls-9" x="658" y="343" width="26" height="6"/><rect class="cls-9" x="658.5" y="276.5" width="63" height="63" rx="2.5" ry="2.5"/><path class="cls-16" d="M719,277a2,2,0,0,1,2,2v58a2,2,0,0,1-2,2H661a2,2,0,0,1-2-2V279a2,2,0,0,1,2-2h58m0-1H661a3,3,0,0,0-3,3v58a3,3,0,0,0,3,3h58a3,3,0,0,0,3-3V279a3,3,0,0,0-3-3Z"/><rect class="cls-9" x="369" y="144" width="32" height="7"/><rect class="cls-9" x="369.5" y="61.5" width="78" height="78" rx="2.5" ry="2.5"/><path class="cls-16" d="M445,62a2,2,0,0,1,2,2v73a2,2,0,0,1-2,2H372a2,2,0,0,1-2-2V64a2,2,0,0,1,2-2h73m0-1H372a3,3,0,0,0-3,3v73a3,3,0,0,0,3,3h73a3,3,0,0,0,3-3V64a3,3,0,0,0-3-3Z"/><rect class="cls-9" x="462" y="144" width="32" height="7"/><rect class="cls-9" x="462.5" y="61.5" width="78" height="78" rx="2.5" ry="2.5"/><path class="cls-10" d="M538,62a2,2,0,0,1,2,2v73a2,2,0,0,1-2,2H465a2,2,0,0,1-2-2V64a2,2,0,0,1,2-2h73m0-1H465a3,3,0,0,0-3,3v73a3,3,0,0,0,3,3h73a3,3,0,0,0,3-3V64a3,3,0,0,0-3-3Z"/><rect class="cls-9" x="555" y="144" width="32" height="7"/><rect class="cls-9" x="555.5" y="61.5" width="78" height="78" rx="2.5" ry="2.5"/><path class="cls-10" d="M631,62a2,2,0,0,1,2,2v73a2,2,0,0,1-2,2H558a2,2,0,0,1-2-2V64a2,2,0,0,1,2-2h73m0-1H558a3,3,0,0,0-3,3v73a3,3,0,0,0,3,3h73a3,3,0,0,0,3-3V64a3,3,0,0,0-3-3Z"/><rect class="cls-9" x="394" y="37" width="30" height="7"/><rect class="cls-140" x="163.5" y="37.5" width="15" height="6"/><rect class="cls-140" x="639.5" y="37.5" width="15" height="6"/><rect class="cls-9" x="183" y="288" width="42.86" height="10"/><line class="cls-11" x1="355.5" y1="96" x2="355.5" y2="103"/><line class="cls-11" x1="368.5" y1="96" x2="368.5" y2="103"/><line class="cls-11" x1="355" y1="99.5" x2="369" y2="99.5"/><line class="cls-11" x1="262.5" y1="96" x2="262.5" y2="103"/><line class="cls-11" x1="275.5" y1="96" x2="275.5" y2="103"/><line class="cls-11" x1="262" y1="99.5" x2="276" y2="99.5"/><line class="cls-11" x1="412" y1="50.5" x2="405" y2="50.5"/><line class="cls-11" x1="412" y1="60.5" x2="405" y2="60.5"/><line class="cls-11" x1="408.5" y1="50" x2="408.5" y2="61"/><line class="cls-11" x1="412" y1="140.5" x2="405" y2="140.5"/><line class="cls-11" x1="412" y1="166.5" x2="405" y2="166.5"/><line class="cls-11" x1="408.5" y1="140" x2="408.5" y2="167"/><line class="cls-11" x1="461.5" y1="103" x2="461.5" y2="96"/><line class="cls-11" x1="448.5" y1="103" x2="448.5" y2="96"/><line class="cls-11" x1="461.5" y1="99.5" x2="448" y2="99.5"/><line class="cls-11" x1="554.5" y1="103" x2="554.5" y2="96"/><line class="cls-11" x1="541.5" y1="103" x2="541.5" y2="96"/><line class="cls-11" x1="554.5" y1="99.5" x2="541" y2="99.5"/><line class="cls-11" x1="659.5" y1="103" x2="659.5" y2="96"/><line class="cls-11" x1="634.5" y1="103" x2="634.5" y2="96"/><line class="cls-11" x1="659.5" y1="99.5" x2="634" y2="99.5"/><line class="cls-142" x1="124" y1="139.5" x2="117" y2="139.5"/><line class="cls-142" x1="124" y1="144.5" x2="117" y2="144.5"/><line class="cls-142" x1="120.5" y1="139" x2="120.5" y2="145"/><line class="cls-142" x1="693" y1="340.5" x2="686" y2="340.5"/><line class="cls-142" x1="693" y1="357.5" x2="686" y2="357.5"/><line class="cls-142" x1="689.5" y1="340" x2="689.5" y2="358"/><line class="cls-142" x1="628.5" y1="308" x2="628.5" y2="315"/><line class="cls-142" x1="657.5" y1="308" x2="657.5" y2="315"/><line class="cls-142" x1="628" y1="311.5" x2="658" y2="311.5"/><line class="cls-142" x1="534.5" y1="308" x2="534.5" y2="315"/><line class="cls-142" x1="563.5" y1="308" x2="563.5" y2="315"/><line class="cls-142" x1="535" y1="311.5" x2="564" y2="311.5"/><line class="cls-142" x1="449.5" y1="308" x2="449.5" y2="315"/><line class="cls-142" x1="469.5" y1="308" x2="469.5" y2="315"/><line class="cls-142" x1="450" y1="311.5" x2="470" y2="311.5"/><line class="cls-142" x1="693" y1="270.5" x2="686" y2="270.5"/><line class="cls-142" x1="693" y1="275.5" x2="686" y2="275.5"/><line class="cls-142" x1="689.5" y1="270" x2="689.5" y2="276"/></svg>